<?xml version="1.0" encoding="UTF-8" standalone="no"?>
<svg xmlns="http://www.w3.org/2000/svg" xmlns:xlink="http://www.w3.org/1999/xlink" class="card" face="2C" height="3.5in" preserveAspectRatio="none" viewBox="-120 -168 240 336" width="2.5in">
  <defs>
    <!-- Club symbol - محسّن بجودة أعلى -->
    <symbol id="SC2" viewBox="-600 -600 1200 1200" preserveAspectRatio="xMinYMid">
      <path d="M30 150C35 385 85 400 130 500L-130 500C-85 400 -35 385 -30 150A10 10 0 0 0 -50 150A210 210 0 1 1 -124 -51A10 10 0 0 0 -110 -65A230 230 0 1 1 110 -65A10 10 0 0 0 124 -51A210 210 0 1 1 50 150A10 10 0 0 0 30 150Z" fill="#1a1a1a"/>
    </symbol>
    
    <!-- Number 2 - محسّن بخطوط أنعم -->
    <symbol id="VC2" viewBox="-500 -500 1000 1000" preserveAspectRatio="xMinYMid">
      <path d="M-225 -225C-245 -265 -200 -460 0 -460C200 -460 225 -325 225 -225C225 -25 -225 160 -225 460L225 460L225 300" stroke="#1a1a1a" stroke-width="80" stroke-linecap="round" stroke-linejoin="round" fill="none"/>
    </symbol>
  </defs>
  
  <!-- Card base -->
  <rect width="239" height="335" x="-119.5" y="-167.5" rx="14" ry="14" fill="#fff" stroke="#222" stroke-width="1.5"/>
  
  <!-- Inner subtle border -->
  <rect width="218" height="314" x="-109" y="-157" rx="10" ry="10" fill="none" stroke="#ccc" stroke-width="0.8"/>
  
  <!-- Top-left corner -->
  <use xlink:href="#VC2" height="32" width="32" x="-114.4" y="-156"/>
  <use xlink:href="#SC2" height="26.769" width="26.769" x="-111.784" y="-119"/>
  <use xlink:href="#SC2" height="70" width="70" x="-35" y="-135.588"/>
  
  <!-- Bottom-right corner (rotated) -->
  <g transform="rotate(180)">
    <use xlink:href="#VC2" height="32" width="32" x="-114.4" y="-156"/>
    <use xlink:href="#SC2" height="26.769" width="26.769" x="-111.784" y="-119"/>
    <use xlink:href="#SC2" height="70" width="70" x="-35" y="-135.588"/>
  </g>
</svg>